<mxfile host="app.diagrams.net" modified="2024-04-12T05:40:16.656Z" agent="Mozilla/5.0 (Macintosh; Intel Mac OS X 10_15_7) AppleWebKit/537.36 (KHTML, like Gecko) Chrome/123.0.0.0 Safari/537.36" etag="iTWvnixY9B6lqfXvQ1s_" version="24.2.3" type="google">
  <diagram name="Page-1" id="gwBp4DPlZ9iarenAp08G">
    <mxGraphModel dx="2084" dy="733" grid="1" gridSize="10" guides="1" tooltips="1" connect="1" arrows="1" fold="1" page="1" pageScale="1" pageWidth="827" pageHeight="1169" math="0" shadow="0">
      <root>
        <mxCell id="0" />
        <mxCell id="1" parent="0" />
        <mxCell id="gp3p1B9uzNRWyzOjeF56-13" style="edgeStyle=orthogonalEdgeStyle;rounded=0;orthogonalLoop=1;jettySize=auto;html=1;exitX=0.5;exitY=0;exitDx=0;exitDy=0;exitPerimeter=0;" edge="1" parent="1" source="noxo9fzUkFuKzuJ421CR-4" target="noxo9fzUkFuKzuJ421CR-21">
          <mxGeometry relative="1" as="geometry" />
        </mxCell>
        <mxCell id="noxo9fzUkFuKzuJ421CR-4" value="" style="outlineConnect=0;dashed=0;verticalLabelPosition=bottom;verticalAlign=top;align=center;html=1;shape=mxgraph.aws3.lambda_function;fillColor=#F58534;gradientColor=none;" parent="1" vertex="1">
          <mxGeometry x="157" y="276" width="72" height="70" as="geometry" />
        </mxCell>
        <mxCell id="noxo9fzUkFuKzuJ421CR-9" value="" style="sketch=0;points=[[0,0,0],[0.25,0,0],[0.5,0,0],[0.75,0,0],[1,0,0],[0,1,0],[0.25,1,0],[0.5,1,0],[0.75,1,0],[1,1,0],[0,0.25,0],[0,0.5,0],[0,0.75,0],[1,0.25,0],[1,0.5,0],[1,0.75,0]];outlineConnect=0;fontColor=#232F3E;fillColor=#E7157B;strokeColor=#ffffff;dashed=0;verticalLabelPosition=bottom;verticalAlign=top;align=center;html=1;fontSize=12;fontStyle=0;aspect=fixed;shape=mxgraph.aws4.resourceIcon;resIcon=mxgraph.aws4.appsync;rotation=0;" parent="1" vertex="1">
          <mxGeometry x="580" y="100" width="70" height="70" as="geometry" />
        </mxCell>
        <mxCell id="noxo9fzUkFuKzuJ421CR-21" value="" style="sketch=0;points=[[0,0,0],[0.25,0,0],[0.5,0,0],[0.75,0,0],[1,0,0],[0,1,0],[0.25,1,0],[0.5,1,0],[0.75,1,0],[1,1,0],[0,0.25,0],[0,0.5,0],[0,0.75,0],[1,0.25,0],[1,0.5,0],[1,0.75,0]];outlineConnect=0;fontColor=#232F3E;fillColor=#E7157B;strokeColor=#ffffff;dashed=0;verticalLabelPosition=bottom;verticalAlign=top;align=center;html=1;fontSize=12;fontStyle=0;aspect=fixed;shape=mxgraph.aws4.resourceIcon;resIcon=mxgraph.aws4.sns;" parent="1" vertex="1">
          <mxGeometry x="154" y="100" width="78" height="78" as="geometry" />
        </mxCell>
        <mxCell id="noxo9fzUkFuKzuJ421CR-24" value="" style="sketch=0;points=[[0,0,0],[0.25,0,0],[0.5,0,0],[0.75,0,0],[1,0,0],[0,1,0],[0.25,1,0],[0.5,1,0],[0.75,1,0],[1,1,0],[0,0.25,0],[0,0.5,0],[0,0.75,0],[1,0.25,0],[1,0.5,0],[1,0.75,0]];outlineConnect=0;fontColor=#232F3E;fillColor=#C925D1;strokeColor=#ffffff;dashed=0;verticalLabelPosition=bottom;verticalAlign=top;align=center;html=1;fontSize=12;fontStyle=0;aspect=fixed;shape=mxgraph.aws4.resourceIcon;resIcon=mxgraph.aws4.dynamodb;" parent="1" vertex="1">
          <mxGeometry x="480" y="272" width="78" height="78" as="geometry" />
        </mxCell>
        <mxCell id="noxo9fzUkFuKzuJ421CR-27" style="edgeStyle=orthogonalEdgeStyle;rounded=0;orthogonalLoop=1;jettySize=auto;html=1;exitX=1;exitY=0.5;exitDx=0;exitDy=0;exitPerimeter=0;entryX=0.5;entryY=1;entryDx=0;entryDy=0;entryPerimeter=0;" parent="1" source="noxo9fzUkFuKzuJ421CR-24" target="noxo9fzUkFuKzuJ421CR-9" edge="1">
          <mxGeometry relative="1" as="geometry" />
        </mxCell>
        <mxCell id="noxo9fzUkFuKzuJ421CR-28" value="" style="endArrow=classic;html=1;rounded=0;exitX=0;exitY=0.5;exitDx=0;exitDy=0;exitPerimeter=0;" parent="1" source="noxo9fzUkFuKzuJ421CR-9" edge="1">
          <mxGeometry width="50" height="50" relative="1" as="geometry">
            <mxPoint x="720" y="240" as="sourcePoint" />
            <mxPoint x="520" y="270" as="targetPoint" />
            <Array as="points">
              <mxPoint x="520" y="135" />
              <mxPoint x="520" y="250" />
            </Array>
          </mxGeometry>
        </mxCell>
        <mxCell id="noxo9fzUkFuKzuJ421CR-35" value="" style="sketch=0;points=[[0,0,0],[0.25,0,0],[0.5,0,0],[0.75,0,0],[1,0,0],[0,1,0],[0.25,1,0],[0.5,1,0],[0.75,1,0],[1,1,0],[0,0.25,0],[0,0.5,0],[0,0.75,0],[1,0.25,0],[1,0.5,0],[1,0.75,0]];outlineConnect=0;fontColor=#232F3E;fillColor=#E7157B;strokeColor=#ffffff;dashed=0;verticalLabelPosition=bottom;verticalAlign=top;align=center;html=1;fontSize=12;fontStyle=0;aspect=fixed;shape=mxgraph.aws4.resourceIcon;resIcon=mxgraph.aws4.eventbridge;" parent="1" vertex="1">
          <mxGeometry x="154" y="421" width="78" height="78" as="geometry" />
        </mxCell>
        <mxCell id="noxo9fzUkFuKzuJ421CR-38" value="&lt;font style=&quot;font-size: 19px; font-weight: normal;&quot; face=&quot;Times New Roman&quot;&gt;Invoke lambda everyday at 8 a.m&lt;/font&gt;" style="text;strokeColor=none;fillColor=none;html=1;fontSize=24;fontStyle=1;verticalAlign=middle;align=center;" parent="1" vertex="1">
          <mxGeometry x="190" y="450" width="400" height="40" as="geometry" />
        </mxCell>
        <mxCell id="noxo9fzUkFuKzuJ421CR-39" value="&lt;font face=&quot;Times New Roman&quot;&gt;&lt;span style=&quot;font-size: 21px; font-weight: 400;&quot;&gt;Data stored in DB&lt;/span&gt;&lt;/font&gt;&lt;div&gt;&lt;font face=&quot;Times New Roman&quot;&gt;&lt;span style=&quot;font-size: 21px; font-weight: 400;&quot;&gt;&lt;br&gt;&lt;/span&gt;&lt;/font&gt;&lt;/div&gt;" style="text;strokeColor=none;fillColor=none;html=1;fontSize=24;fontStyle=1;verticalAlign=middle;align=center;" parent="1" vertex="1">
          <mxGeometry x="260" y="380" width="560" height="21" as="geometry" />
        </mxCell>
        <mxCell id="noxo9fzUkFuKzuJ421CR-40" value="&lt;font style=&quot;font-weight: normal; font-size: 20px;&quot; face=&quot;Times New Roman&quot;&gt;Sends reminder&lt;/font&gt;" style="text;strokeColor=none;fillColor=none;html=1;fontSize=24;fontStyle=1;verticalAlign=middle;align=center;" parent="1" vertex="1">
          <mxGeometry x="-10" y="220" width="230" height="30" as="geometry" />
        </mxCell>
        <mxCell id="noxo9fzUkFuKzuJ421CR-41" value="&lt;font style=&quot;font-weight: normal; font-size: 20px;&quot; face=&quot;Times New Roman&quot;&gt;Using Appsync we view,edit,modify,add to DB&lt;/font&gt;" style="text;strokeColor=none;fillColor=none;html=1;fontSize=24;fontStyle=1;verticalAlign=middle;align=center;" parent="1" vertex="1">
          <mxGeometry x="630" y="190" width="410" height="45" as="geometry" />
        </mxCell>
        <mxCell id="noxo9fzUkFuKzuJ421CR-44" value="&lt;font face=&quot;Times New Roman&quot;&gt;Moment Minder&lt;/font&gt;" style="text;strokeColor=none;fillColor=none;html=1;fontSize=35;fontStyle=1;verticalAlign=middle;align=center;" parent="1" vertex="1">
          <mxGeometry x="360" y="540" width="300" height="35" as="geometry" />
        </mxCell>
        <mxCell id="gp3p1B9uzNRWyzOjeF56-2" style="edgeStyle=orthogonalEdgeStyle;rounded=0;orthogonalLoop=1;jettySize=auto;html=1;exitX=0.5;exitY=0;exitDx=0;exitDy=0;exitPerimeter=0;entryX=0.5;entryY=1;entryDx=0;entryDy=0;entryPerimeter=0;" edge="1" parent="1" source="noxo9fzUkFuKzuJ421CR-35" target="noxo9fzUkFuKzuJ421CR-4">
          <mxGeometry relative="1" as="geometry" />
        </mxCell>
        <mxCell id="gp3p1B9uzNRWyzOjeF56-5" style="edgeStyle=orthogonalEdgeStyle;rounded=0;orthogonalLoop=1;jettySize=auto;html=1;exitX=1;exitY=0.5;exitDx=0;exitDy=0;exitPerimeter=0;entryX=0;entryY=0.5;entryDx=0;entryDy=0;entryPerimeter=0;" edge="1" parent="1" source="noxo9fzUkFuKzuJ421CR-4" target="noxo9fzUkFuKzuJ421CR-24">
          <mxGeometry relative="1" as="geometry" />
        </mxCell>
        <mxCell id="gp3p1B9uzNRWyzOjeF56-7" value="&lt;font face=&quot;Times New Roman&quot; style=&quot;font-size: 19px;&quot;&gt;&lt;br&gt;&lt;br&gt;&lt;/font&gt;&lt;p style=&quot;font-size: 19px;&quot; class=&quot;p2&quot;&gt;&lt;font style=&quot;font-size: 19px;&quot;&gt;&lt;font face=&quot;GazElxeiOzARFhjpPwbo&quot; style=&quot;font-size: 19px;&quot;&gt;Checks if the current date matches&amp;nbsp;&lt;/font&gt;&lt;span style=&quot;background-color: initial; font-family: GazElxeiOzARFhjpPwbo;&quot;&gt;any employee&#39;s birthday or work anniversary&lt;/span&gt;&lt;/font&gt;&lt;/p&gt;" style="text;whiteSpace=wrap;html=1;" vertex="1" parent="1">
          <mxGeometry x="240" y="147" width="228" height="88" as="geometry" />
        </mxCell>
      </root>
    </mxGraphModel>
  </diagram>
</mxfile>
